<?xml version="1.0" encoding="UTF-8"?>
<svg xmlns="http://www.w3.org/2000/svg" xmlns:xlink="http://www.w3.org/1999/xlink" width="487pt" height="70pt" viewBox="0 0 487 70" version="1.1">
<g id="surface1">
<path style=" stroke:none;fill-rule:nonzero;fill:rgb(0%,0%,0%);fill-opacity:1;" d="M 125.511719 14.792969 L 136.203125 14.792969 L 122.738281 58.640625 L 110.863281 58.640625 L 103.339844 29.1875 L 95.683594 58.640625 L 83.804688 58.640625 L 70.34375 14.792969 L 81.5625 14.792969 L 89.746094 48.074219 L 97.796875 14.660156 L 109.542969 14.660156 L 117.460938 47.945312 Z M 125.511719 14.792969 "/>
<path style=" stroke:none;fill-rule:nonzero;fill:rgb(0%,0%,0%);fill-opacity:1;" d="M 142.800781 52.960938 C 138.578125 48.734375 136.332031 43.320312 136.332031 36.585938 C 136.332031 29.847656 138.445312 24.433594 142.800781 20.207031 C 147.15625 16.113281 152.566406 14 158.902344 14 C 165.238281 14 170.648438 16.113281 175.003906 20.207031 C 179.359375 24.300781 181.46875 29.71875 181.46875 36.585938 C 181.46875 43.320312 179.359375 48.867188 174.871094 52.960938 C 170.515625 57.1875 165.105469 59.167969 158.636719 59.167969 C 152.433594 59.300781 147.15625 57.1875 142.800781 52.960938 Z M 158.902344 49.792969 C 162.070312 49.792969 164.707031 48.605469 166.953125 46.359375 C 169.195312 44.113281 170.253906 40.8125 170.253906 36.585938 C 170.253906 32.359375 169.195312 29.1875 166.953125 26.945312 C 164.707031 24.699219 162.070312 23.507812 158.902344 23.507812 C 155.734375 23.507812 153.09375 24.699219 150.984375 26.945312 C 148.871094 29.1875 147.683594 32.492188 147.683594 36.71875 C 147.683594 40.945312 148.738281 44.246094 150.984375 46.492188 C 153.09375 48.734375 155.734375 49.792969 158.902344 49.792969 Z M 158.902344 49.792969 "/>
<path style=" stroke:none;fill-rule:nonzero;fill:rgb(0%,0%,0%);fill-opacity:1;" d="M 189.390625 52.960938 C 185.164062 48.734375 182.921875 43.320312 182.921875 36.585938 C 182.921875 29.847656 185.035156 24.433594 189.390625 20.207031 C 193.746094 16.113281 199.15625 14 205.492188 14 C 211.824219 14 217.234375 16.113281 221.589844 20.207031 C 225.945312 24.300781 228.058594 29.71875 228.058594 36.585938 C 228.058594 43.320312 225.945312 48.867188 221.460938 52.960938 C 217.105469 57.1875 211.691406 59.167969 205.226562 59.167969 C 199.023438 59.300781 193.613281 57.1875 189.390625 52.960938 Z M 205.492188 49.792969 C 208.65625 49.792969 211.296875 48.605469 213.539062 46.359375 C 215.785156 44.113281 216.839844 40.8125 216.839844 36.585938 C 216.839844 32.359375 215.785156 29.1875 213.539062 26.945312 C 211.296875 24.699219 208.65625 23.507812 205.492188 23.507812 C 202.324219 23.507812 199.683594 24.699219 197.570312 26.945312 C 195.460938 29.1875 194.273438 32.492188 194.273438 36.71875 C 194.273438 40.945312 195.328125 44.246094 197.570312 46.492188 C 199.683594 48.734375 202.324219 49.792969 205.492188 49.792969 Z M 205.492188 49.792969 "/>
<path style=" stroke:none;fill-rule:nonzero;fill:rgb(0%,0%,0%);fill-opacity:1;" d="M 236.769531 52.960938 C 232.808594 48.734375 230.832031 43.320312 230.832031 36.71875 C 230.832031 30.113281 232.808594 24.699219 236.636719 20.472656 C 240.597656 16.246094 245.480469 14.132812 251.550781 14.132812 C 257.621094 14.132812 262.109375 16.640625 265.277344 21.527344 L 265.277344 0 L 276.363281 0 L 276.363281 58.640625 L 265.277344 58.640625 L 265.277344 51.246094 C 261.976562 56.527344 257.359375 59.300781 251.417969 59.300781 C 245.480469 59.300781 240.597656 57.1875 236.769531 52.960938 Z M 261.84375 46.09375 C 264.21875 43.847656 265.277344 40.679688 265.277344 36.585938 C 265.277344 32.621094 264.089844 29.453125 261.84375 27.074219 C 259.46875 24.832031 256.828125 23.640625 253.664062 23.640625 C 250.496094 23.640625 247.855469 24.832031 245.480469 27.074219 C 243.234375 29.320312 242.046875 32.492188 242.046875 36.453125 C 242.046875 40.414062 243.234375 43.585938 245.480469 45.960938 C 247.855469 48.339844 250.496094 49.394531 253.53125 49.394531 C 256.828125 49.660156 259.46875 48.472656 261.84375 46.09375 Z M 261.84375 46.09375 "/>
<path style=" stroke:none;fill-rule:nonzero;fill:rgb(0%,0%,0%);fill-opacity:1;" d="M 293.652344 14.792969 L 293.652344 21.394531 C 296.421875 16.640625 301.042969 14.132812 307.246094 14.132812 C 310.546875 14.132812 313.582031 14.925781 316.21875 16.378906 C 318.859375 17.960938 320.839844 20.074219 322.292969 22.980469 C 323.875 20.207031 325.988281 18.09375 328.625 16.507812 C 331.265625 14.925781 334.300781 14.132812 337.601562 14.132812 C 342.878906 14.132812 347.101562 15.71875 350.269531 19.019531 C 353.4375 22.320312 355.023438 26.945312 355.023438 32.753906 L 355.023438 58.640625 L 343.933594 58.640625 L 343.933594 34.339844 C 343.933594 30.90625 343.011719 28.265625 341.296875 26.414062 C 339.582031 24.566406 337.203125 23.640625 334.167969 23.640625 C 331.132812 23.640625 328.757812 24.566406 327.042969 26.414062 C 325.328125 28.265625 324.402344 30.90625 324.402344 34.339844 L 324.402344 58.640625 L 313.316406 58.640625 L 313.316406 34.339844 C 313.316406 30.90625 312.394531 28.265625 310.675781 26.414062 C 308.960938 24.566406 306.585938 23.640625 303.550781 23.640625 C 300.515625 23.640625 298.140625 24.566406 296.421875 26.414062 C 294.707031 28.265625 293.785156 30.90625 293.785156 34.339844 L 293.785156 58.640625 L 282.433594 58.640625 L 282.433594 14.792969 Z M 293.652344 14.792969 "/>
<path style=" stroke:none;fill-rule:nonzero;fill:rgb(0%,0%,0%);fill-opacity:1;" d="M 366.109375 52.960938 C 362.148438 48.734375 360.167969 43.320312 360.167969 36.71875 C 360.167969 30.113281 362.148438 24.699219 365.976562 20.472656 C 369.933594 16.246094 374.820312 14.132812 380.890625 14.132812 C 386.960938 14.132812 391.449219 16.640625 394.613281 21.527344 L 394.613281 14.660156 L 405.703125 14.660156 L 405.703125 58.507812 L 394.613281 58.507812 L 394.613281 51.113281 C 391.316406 56.394531 386.695312 59.167969 380.757812 59.167969 C 374.949219 59.300781 370.066406 57.1875 366.109375 52.960938 Z M 391.183594 46.09375 C 393.558594 43.847656 394.613281 40.679688 394.613281 36.585938 C 394.613281 32.621094 393.425781 29.453125 391.183594 27.074219 C 388.808594 24.832031 386.167969 23.640625 383 23.640625 C 379.832031 23.640625 377.195312 24.832031 374.820312 27.074219 C 372.574219 29.320312 371.386719 32.492188 371.386719 36.453125 C 371.386719 40.414062 372.574219 43.585938 374.820312 45.960938 C 377.195312 48.339844 379.832031 49.394531 383 49.394531 C 386.167969 49.394531 388.941406 48.472656 391.183594 46.09375 Z M 391.183594 46.09375 "/>
<path style=" stroke:none;fill-rule:nonzero;fill:rgb(0%,0%,0%);fill-opacity:1;" d="M 424.308594 14.792969 L 424.308594 22.453125 C 427.214844 16.90625 431.570312 14 437.113281 14 L 437.113281 25.359375 L 434.339844 25.359375 C 431.042969 25.359375 428.535156 26.152344 426.816406 27.867188 C 425.101562 29.585938 424.308594 32.359375 424.308594 36.453125 L 424.308594 58.507812 L 413.09375 58.507812 L 413.09375 14.792969 Z M 424.308594 14.792969 "/>
<path style=" stroke:none;fill-rule:nonzero;fill:rgb(0%,0%,0%);fill-opacity:1;" d="M 462.847656 49.265625 L 468.128906 49.265625 L 468.128906 58.640625 L 461.132812 58.640625 C 456.644531 58.640625 453.214844 57.585938 450.707031 55.605469 C 448.332031 53.492188 447.011719 50.1875 447.011719 45.433594 L 447.011719 23.90625 L 442.390625 23.90625 L 442.390625 14.792969 L 447.011719 14.792969 L 447.011719 3.832031 L 458.230469 3.832031 L 458.230469 14.660156 L 467.996094 14.660156 L 467.996094 23.773438 L 458.230469 23.773438 L 458.230469 45.300781 C 458.230469 46.753906 458.625 47.8125 459.285156 48.339844 C 460.078125 49 461.265625 49.265625 462.847656 49.265625 Z M 462.847656 49.265625 "/>
<path style="fill:none;stroke-width:3;stroke-linecap:butt;stroke-linejoin:miter;stroke:rgb(0%,0%,0%);stroke-opacity:1;stroke-miterlimit:10;" d="M 46.900459 28.49933 C 46.900459 41.036551 36.736621 51.198828 24.19905 51.198828 C 11.664439 51.198828 1.500602 41.036551 1.500602 28.49933 C 1.500602 15.962109 11.664439 5.799833 24.19905 5.799833 C 36.736621 5.799833 46.900459 15.962109 46.900459 28.49933 Z M 46.900459 28.49933 " transform="matrix(1.319783,0,0,1.320755,0,0)"/>
<path style=" stroke:none;fill-rule:nonzero;fill:rgb(0%,0%,0%);fill-opacity:1;" d="M 13.199219 52.566406 L 31.542969 14.660156 L 51.472656 52.566406 "/>
<path style=" stroke:none;fill-rule:nonzero;fill:rgb(0%,0%,0%);fill-opacity:1;" d="M 29.695312 52.300781 L 33.523438 52.300781 L 33.523438 60.621094 L 29.695312 60.621094 Z M 29.695312 52.300781 "/>
<path style=" stroke:none;fill-rule:nonzero;fill:rgb(0%,0%,0%);fill-opacity:1;" d="M 485.945312 52.300781 C 485.945312 54.152344 485.285156 55.605469 484.097656 56.792969 C 482.910156 57.980469 481.324219 58.640625 479.609375 58.640625 C 477.894531 58.640625 476.308594 57.980469 475.121094 56.792969 C 473.933594 55.605469 473.273438 54.019531 473.273438 52.300781 C 473.273438 50.453125 473.933594 49 475.121094 47.8125 C 476.308594 46.621094 477.761719 45.960938 479.609375 45.960938 C 481.457031 45.960938 482.910156 46.621094 484.097656 47.8125 C 485.285156 49 485.945312 50.585938 485.945312 52.300781 Z M 485.945312 52.300781 "/>
</g>
</svg>
